<svg xmlns="http://www.w3.org/2000/svg" xmlns:xlink="http://www.w3.org/1999/xlink" width="134.997" height="40" viewBox="0 0 134.997 40">
  <defs>
    <linearGradient id="linear-gradient" x1="-3.238" y1="-3.01" x2="-3.14" y2="-3.01" gradientUnits="objectBoundingBox">
      <stop offset="0" stop-color="#fce006"/>
      <stop offset="1" stop-color="#f99b1c"/>
    </linearGradient>
    <linearGradient id="linear-gradient-2" x1="-1.226" y1="-2.335" x2="-1.166" y2="-2.335" gradientUnits="objectBoundingBox">
      <stop offset="0" stop-color="#ef4547"/>
      <stop offset="1" stop-color="#c7156e"/>
    </linearGradient>
    <linearGradient id="linear-gradient-3" x1="-1.226" y1="-1.335" x2="-1.166" y2="-1.335" gradientUnits="objectBoundingBox">
      <stop offset="0" stop-color="#23a071"/>
      <stop offset="1" stop-color="#74c269"/>
    </linearGradient>
  </defs>
  <g id="g46" transform="translate(-10 -10.001)">
    <g id="g4576" transform="translate(0 0.001)">
      <path id="path4" d="M140,50H15a5.015,5.015,0,0,1-5-5V15a5.015,5.015,0,0,1,5-5H140a5.015,5.015,0,0,1,5,5V45A5.015,5.015,0,0,1,140,50Z" fill="#030404"/>
      <path id="path6" d="M140,10H15a5.015,5.015,0,0,0-5,5V45a5.015,5.015,0,0,0,5,5H140a5.015,5.015,0,0,0,5-5V15a5.015,5.015,0,0,0-5-5Zm0,.8a4.205,4.205,0,0,1,4.2,4.2V45a4.205,4.205,0,0,1-4.2,4.2H15A4.205,4.205,0,0,1,10.8,45V15A4.205,4.205,0,0,1,15,10.8Z" fill="#a6a6a6"/>
      <path id="path8" d="M57.418,20.244a2.709,2.709,0,0,1-.745,2,2.912,2.912,0,0,1-2.2.887,3.152,3.152,0,0,1-2.208-5.367,3.017,3.017,0,0,1,2.208-.9,3.085,3.085,0,0,1,1.231.252,2.481,2.481,0,0,1,.939.67l-.528.528a2.024,2.024,0,0,0-1.642-.712,2.319,2.319,0,0,0-2.33,2.4,2.359,2.359,0,0,0,4.006,1.727,1.883,1.883,0,0,0,.5-1.215H54.469v-.721h2.907a2.572,2.572,0,0,1,.042.453Z" fill="#fff"/>
      <path id="path10" d="M57.418,20.244h-.1a2.608,2.608,0,0,1-.716,1.932h0a2.81,2.81,0,0,1-2.132.856,3.053,3.053,0,0,1-2.138-5.2,2.918,2.918,0,0,1,2.138-.872,2.984,2.984,0,0,1,1.192.244,2.378,2.378,0,0,1,.9.642l.077-.064-.071-.071-.527.528.07.071.077-.064a2.124,2.124,0,0,0-1.719-.748,2.419,2.419,0,0,0-2.43,2.5,2.459,2.459,0,0,0,4.176,1.8,1.99,1.99,0,0,0,.532-1.278l.01-.108H54.569v-.521h2.807v-.1l-.1.018a2.461,2.461,0,0,1,.04.435h.2a2.582,2.582,0,0,0-.044-.471l-.014-.082H54.369v.921h2.278v-.1l-.1-.009a1.789,1.789,0,0,1-.474,1.153A2.247,2.247,0,0,1,52.239,20a2.22,2.22,0,0,1,2.23-2.3,1.925,1.925,0,0,1,1.566.676l.07.084.6-.6.065-.065-.059-.07a2.576,2.576,0,0,0-.975-.7,3.2,3.2,0,0,0-1.271-.26,3.254,3.254,0,0,0-2.279,5.539,3.122,3.122,0,0,0,2.279.929,3.01,3.01,0,0,0,2.276-.918l-.072-.069.071.07a2.807,2.807,0,0,0,.774-2.073Z" fill="#fff"/>
      <path id="path12" d="M62.027,17.738H59.3v1.9h2.464v.721H59.3v1.9h2.732V23h-3.5V17h3.5Z" fill="#fff"/>
      <path id="path14" d="M62.027,17.738v-.1H59.195v2.1h2.464v.521H59.195v2.1h2.732V22.9h-3.3V17.1h3.3v.638h.1v0h.1V16.9h-3.7v6.2h3.7v-.937H59.395v-1.7h2.464V19.54H59.395v-1.7h2.732v-.1Z" fill="#fff"/>
      <path id="path16" d="M65.278,23h-.771V17.738H62.831V17h4.123v.738H65.278Z" fill="#fff"/>
      <path id="path18" d="M65.278,23v-.1h-.671V17.638H62.931V17.1h3.923v.538H65.178V23h.1v0h.1V17.838h1.676V16.9H62.731v.938h1.676V23.1h.971V23Z" fill="#fff"/>
      <rect id="rect20" width="0.77" height="6" transform="translate(69.938 17)" fill="#fff"/>
      <path id="path22" d="M69.938,23h.1V17.1h.57v5.8h-.67V23h0v.1h.87V16.9h-.97v6.2h.1Z" fill="#fff"/>
      <path id="path24" d="M74.128,23h-.772V17.738H71.681V17H75.8v.738H74.128Z" fill="#fff"/>
      <path id="path26" d="M74.128,23v-.1h-.672V17.638H71.781V17.1H75.7v.538H74.028V23h.1v0h.1V17.838H75.9V16.9H71.581v.938h1.675V23.1h.972V23Z" fill="#fff"/>
      <path id="path28" d="M79.779,21.723a2.308,2.308,0,0,0,3.26,0,2.558,2.558,0,0,0,0-3.445,2.308,2.308,0,0,0-3.26,0,2.56,2.56,0,0,0,0,3.445Zm3.83.5a3.116,3.116,0,0,1-4.4,0,3.241,3.241,0,0,1,0-4.449,3.1,3.1,0,0,1,4.395,0,3.231,3.231,0,0,1,0,4.445Z" fill="#fff"/>
      <path id="path30" d="M79.779,21.723l-.071.07a2.407,2.407,0,0,0,3.4,0,2.656,2.656,0,0,0,0-3.585,2.407,2.407,0,0,0-3.4,0,2.659,2.659,0,0,0,0,3.585l.071-.07.071-.071a2.461,2.461,0,0,1,0-3.3h0a2.207,2.207,0,0,1,3.117,0h0a2.454,2.454,0,0,1,0,3.3,2.205,2.205,0,0,1-3.117,0Zm3.83.5-.072-.07a3.015,3.015,0,0,1-4.256,0l0,0,0,0a3.142,3.142,0,0,1,0-4.309,3,3,0,0,1,4.252,0,3.129,3.129,0,0,1,0,4.305l.144.14a3.332,3.332,0,0,0,0-4.585,3.2,3.2,0,0,0-4.539,0,3.342,3.342,0,0,0,0,4.589l0,0,0,0a3.217,3.217,0,0,0,4.543,0Z" fill="#fff"/>
      <path id="path32" d="M85.575,23V17h.938l2.916,4.668h.033l-.033-1.156V17H90.2v6H89.4l-3.051-4.893h-.033l.033,1.156V23Z" fill="#fff"/>
      <path id="path34" d="M85.575,23h.1V17.1h.783l2.916,4.668h.191l-.036-1.258V17.1H90.1v5.8h-.649L86.4,18.007h-.192l.036,1.258V22.9h-.67V23h0v.1h.87V19.262L86.412,18.1l-.1,0v.1h.033v-.1l-.085.053,3.081,4.94h.96V16.9h-.972v3.613l.033,1.158.1,0v-.1h-.033v.1l.085-.053L86.569,16.9H85.475v6.2h.1Z" fill="#fff"/>
      <path id="path36" d="M116.936,40H118.8V27.5h-1.866Zm16.807-8-2.139,5.42h-.064L129.32,32h-2.01l3.329,7.576-1.9,4.213h1.947L135.818,32ZM123.161,38.58c-.612,0-1.464-.305-1.464-1.061,0-.965,1.062-1.335,1.978-1.335a3.326,3.326,0,0,1,1.705.418A2.262,2.262,0,0,1,123.161,38.58Zm.225-6.851a3.5,3.5,0,0,0-3.329,1.914l1.656.692a1.768,1.768,0,0,1,1.705-.917,1.8,1.8,0,0,1,1.962,1.608v.129a4.126,4.126,0,0,0-1.946-.483c-1.785,0-3.6.981-3.6,2.815a2.889,2.889,0,0,0,3.1,2.75,2.634,2.634,0,0,0,2.381-1.222h.064v.965h1.8V35.187c0-2.22-1.656-3.458-3.795-3.458Zm-11.532,1.8H109.2V29.239h2.654a2.143,2.143,0,1,1,0,4.285Zm-.048-6.025h-4.471V40H109.2V35.264h2.606a3.888,3.888,0,1,0,0-7.765ZM87.424,38.583a2.587,2.587,0,0,1,0-5.155A2.4,2.4,0,0,1,89.7,36.021a2.377,2.377,0,0,1-2.272,2.562Zm2.143-5.88H89.5a2.947,2.947,0,0,0-2.24-.951,4.257,4.257,0,0,0,0,8.506,2.9,2.9,0,0,0,2.24-.966h.064V39.9c0,1.627-.87,2.5-2.272,2.5a2.354,2.354,0,0,1-2.142-1.514l-1.627.676a4.052,4.052,0,0,0,3.769,2.514c2.192,0,4.044-1.289,4.044-4.431V32.01H89.567ZM92.628,40H94.5V27.5H92.628Zm4.624-4.125A2.333,2.333,0,0,1,99.475,33.4a1.646,1.646,0,0,1,1.579.9Zm5.8-1.417a3.952,3.952,0,0,0-3.641-2.707A4.043,4.043,0,0,0,95.4,36a4.161,4.161,0,0,0,4.221,4.253,4.23,4.23,0,0,0,3.545-1.885l-1.45-.966a2.429,2.429,0,0,1-2.1,1.176,2.163,2.163,0,0,1-2.062-1.289l5.687-2.352Zm-45.309-1.4v1.8h4.318a3.766,3.766,0,0,1-.983,2.272,4.421,4.421,0,0,1-3.335,1.321,4.8,4.8,0,0,1,0-9.6A4.6,4.6,0,0,1,61,30.141l1.272-1.273a6.293,6.293,0,0,0-4.527-1.82,6.606,6.606,0,1,0,0,13.21,6.04,6.04,0,0,0,4.608-1.852,6.5,6.5,0,0,0,1.466-5.349Zm11.079,5.526a2.584,2.584,0,1,1,2.4-2.578A2.46,2.46,0,0,1,68.822,38.583Zm0-6.831a4.253,4.253,0,1,0,4.269,4.253A4.192,4.192,0,0,0,68.822,31.752Zm9.313,6.831a2.584,2.584,0,1,1,2.4-2.578A2.461,2.461,0,0,1,78.135,38.583Zm0-6.831a4.253,4.253,0,1,0,4.27,4.253A4.192,4.192,0,0,0,78.135,31.752Z" fill="#fff"/>
      <path id="path38" d="M20.435,17.548a2,2,0,0,0-.463,1.4v22.1a2,2,0,0,0,.463,1.4l.073.072L32.887,30.146v-.292L20.508,17.475Z" fill="#5acaf4"/>
      <path id="path40" d="M37.013,34.274l-4.126-4.128v-.292l4.127-4.127.093.053L42,28.558c1.4.793,1.4,2.092,0,2.885l-4.889,2.778Z" fill-rule="evenodd" fill="url(#linear-gradient)"/>
      <path id="path42" d="M37.107,34.221,32.887,30,20.435,42.453a1.624,1.624,0,0,0,2.076.061Z" fill-rule="evenodd" fill="url(#linear-gradient-2)"/>
      <path id="path44" d="M37.107,25.78l-14.6-8.293a1.623,1.623,0,0,0-2.076.061L32.887,30Z" fill-rule="evenodd" fill="url(#linear-gradient-3)"/>
    </g>
  </g>
</svg>
