<svg id="logo" xmlns="http://www.w3.org/2000/svg" width="139.412" height="30" viewBox="0 0 139.412 30">
  <path id="Path_655" data-name="Path 655" d="M35.13,4.761v8.233c.679,0,1.293.02,1.745.02,2.216,0,4.9-.665,4.9-4a4.171,4.171,0,0,0-4.409-4.252s-1.264,0-2.233,0m88.412,14.632c3.574-6.12,7.037-12.736,10.58-19.3l5.29,29.5H134.1l-2.267-13.227-8.074,13.393a.4.4,0,0,0-.229.139l-8.334-13.357c-.964,4.2-1.691,8.649-2.541,13.051l-5.036,0L112.874.268ZM74.729,2.169V7.9a13.293,13.293,0,0,0-8.053-2.968C51.632,5.309,56.3,34.405,74.687,21.7v5.734c-2.565,1.7-7.681,3.03-10.683,2.417C45.506,26.086,50.111-.308,66.3,0c2.92.055,5.957.4,8.425,2.167M39.686,0c4.932,0,7.73,3.874,7.73,8.332,0,3.137-1.742,7.307-5.842,7.974L49.139,29.6h-6.5L35.177,16.432a.128.128,0,0,0-.045.109V29.6H29.4V0ZM25.548,29.6H19.885c-.9-2.161-2.568-6.377-2.568-6.377l-8.776,0L6.051,29.6,0,29.6c2.277-5.537,4-9.592,5.939-14.153,2.107-4.954,4.04-9.358,6.7-15.3ZM10.286,18.7h5.137l-2.63-5.848ZM103.766,29.6H98.1c-.9-2.161-2.57-6.377-2.57-6.377l-8.774,0L84.267,29.6l-6.051,0c2.277-5.537,4.007-9.592,5.941-14.153,2.106-4.954,4.039-9.358,6.7-15.3ZM88.5,18.7h5.139l-2.632-5.848Z" transform="translate(0 0)" fill="#fff"/>
</svg>
