<svg id="stats-awards" xmlns="http://www.w3.org/2000/svg" width="61.7" height="68.1" viewBox="0 0 61.7 68.1">
  <path id="Path_709" data-name="Path 709" d="M11.7,55.9h1.2l.6,1.1,3.9,7,7.8-13.5a24.8,24.8,0,0,1-13.8-8L3.5,56Z" fill="none"/>
  <circle id="Ellipse_6" data-name="Ellipse 6" cx="16.5" cy="16.5" r="16.5" transform="translate(13.9 9)" fill="none"/>
  <path id="Path_710" data-name="Path 710" d="M36.5,50.3l8,13.7,3.9-7,.6-1.1h1.2l8.2.1L50.2,41.7A26.425,26.425,0,0,1,36.5,50.3Z" fill="none"/>
  <path id="Path_711" data-name="Path 711" d="M49,39.9c.4-.6.9-1.2,1.3-1.8a23.139,23.139,0,0,0,3.6-12.5,23.5,23.5,0,1,0-47-.1,22.937,22.937,0,0,0,4.2,13.4h0c.4.6.9,1.2,1.3,1.7a23.705,23.705,0,0,0,13.8,8l2.1.3h0a13.4,13.4,0,0,0,2,.1c1,0,2-.1,3-.2a15.524,15.524,0,0,0,2.1-.4A23.8,23.8,0,0,0,49,39.9ZM30.4,44A18.5,18.5,0,1,1,48.9,25.5,18.522,18.522,0,0,1,30.4,44Z" fill="none"/>
  <path id="Path_712" data-name="Path 712" d="M51.4,40a10.917,10.917,0,0,1-1.3,1.7L58.3,56l-8.2-.1H48.9L48.3,57l-3.9,7L36.5,50.3a15.525,15.525,0,0,1-2.1.4l10,17.4L50,58h0l11.7.1Z" fill="#0eafd2"/>
  <path id="Path_713" data-name="Path 713" d="M17.4,64l-3.9-7-.6-1.1H11.7L3.5,56l7.8-13.6c-.5-.5-.9-1.1-1.4-1.7h0L0,58.1,11.7,58h0l5.6,10.1h0l10-17.3-2.1-.3Z" fill="#0eafd2"/>
  <path id="Path_714" data-name="Path 714" d="M55.9,25.5A25.479,25.479,0,0,0,30.4,0,25.479,25.479,0,0,1,55.9,25.5Z" fill="#e2e5e7"/>
  <path id="Path_715" data-name="Path 715" d="M30.4,0A25.479,25.479,0,0,0,4.9,25.5,25.479,25.479,0,0,1,30.4,0Z" fill="#e2e5e7"/>
  <path id="Path_716" data-name="Path 716" d="M50.1,41.7A19.224,19.224,0,0,0,51.4,40a25.677,25.677,0,0,0,4.5-14.5A25.677,25.677,0,0,1,51.4,40c-.4.6-.9,1.2-1.3,1.7a25.606,25.606,0,0,1-13.6,8.5,15.525,15.525,0,0,1-2.1.4,27.277,27.277,0,0,1-4.1.3,28.279,28.279,0,0,0,4.1-.3c.7-.1,1.4-.3,2.1-.4A25.021,25.021,0,0,0,50.1,41.7Z" fill="#e2e5e7"/>
  <path id="Path_717" data-name="Path 717" d="M27.3,50.8l-2.1-.3a25.147,25.147,0,0,1-13.8-8c-.5-.5-.9-1.1-1.4-1.7h0A25.35,25.35,0,0,1,4.9,25.5,25.572,25.572,0,0,0,10,40.8h0a20.948,20.948,0,0,0,1.4,1.7,25.5,25.5,0,0,0,13.8,8l2.1.3h0c1,.1,2.1.2,3.1.2-1,0-2.1-.1-3.1-.2Z" fill="#e2e5e7"/>
  <path id="Path_718" data-name="Path 718" d="M36.5,50.3A25.338,25.338,0,0,0,50,41.8a19.224,19.224,0,0,0,1.3-1.7,24.936,24.936,0,0,0,4.5-14.5A25.45,25.45,0,1,0,10,40.8h0a20.948,20.948,0,0,0,1.4,1.7,25.5,25.5,0,0,0,13.8,8,15.171,15.171,0,0,0,2.1.3h0c1,.1,2.1.2,3.1.2a28.279,28.279,0,0,0,4.1-.3C35.2,50.6,35.9,50.4,36.5,50.3ZM30.4,49a12.75,12.75,0,0,1-2-.1h0l-2.1-.3a23.4,23.4,0,0,1-13.8-8,19.225,19.225,0,0,1-1.3-1.7h0A23.67,23.67,0,0,1,7,25.5a23.45,23.45,0,1,1,46.9,0A23.139,23.139,0,0,1,50.3,38,20.279,20.279,0,0,1,49,39.8a23.519,23.519,0,0,1-13.5,8.6,15.525,15.525,0,0,1-2.1.4C32.4,48.9,31.4,49,30.4,49Z" fill="#0eafd2"/>
  <path id="Path_719" data-name="Path 719" d="M48.9,25.5A18.5,18.5,0,1,0,30.4,44,18.522,18.522,0,0,0,48.9,25.5ZM30.4,42A16.5,16.5,0,1,1,46.9,25.5,16.516,16.516,0,0,1,30.4,42Z" fill="#0eafd2"/>
</svg>
